<svg width="1164" height="797" viewBox="0 0 1164 797" fill="none" xmlns="http://www.w3.org/2000/svg">
<path d="M600.691 371.219H559.191C557.316 371.219 555.832 371.93 554.738 373.344C553.645 374.762 553.098 376.43 553.098 378.344C553.098 380.23 553.621 381.844 554.676 383.188C555.727 384.523 557.23 385.188 559.191 385.188H583.629C590.223 385.188 595.43 387.664 599.254 392.609C602.742 397.09 604.488 402.547 604.488 408.984C604.488 415.465 602.762 420.93 599.316 425.375C595.48 430.324 590.254 432.797 583.629 432.797H539.129V416.234H580.801C582.57 416.234 584.008 415.469 585.113 413.938C586.113 412.555 586.613 410.887 586.613 408.938C586.613 407.055 586.113 405.434 585.113 404.078C584.121 402.715 582.684 402.031 580.801 402.031H556.316C549.691 402.031 544.441 399.578 540.566 394.672C537.043 390.234 535.285 384.813 535.285 378.406C535.285 372.012 537.023 366.609 540.504 362.203C544.418 357.258 549.691 354.781 556.316 354.781H600.691V371.219ZM684.785 355.359C683.285 360.496 681.004 367.93 677.941 377.656C674.066 389.93 670.676 400.43 667.77 409.156C664.121 420.043 661.84 426.156 660.926 427.5C659.434 429.648 657.184 431.313 654.176 432.5C651.164 433.688 647.973 434.281 644.598 434.281C641.191 434.281 638.02 433.707 635.082 432.563C632.152 431.418 629.926 429.73 628.395 427.5C627.434 426.242 625.133 420.148 621.488 409.219C618.84 401.293 615.473 390.793 611.379 377.719C609.035 370.281 606.711 362.828 604.41 355.359H622.926L643.223 415.953C643.336 416.602 643.773 416.922 644.535 416.922C645.348 416.922 645.902 416.602 646.207 415.953L666.098 355.359H684.785ZM765.496 432.797H747.043L726.684 372.781C726.566 372.168 726.129 371.859 725.371 371.859C724.559 371.859 724.016 372.168 723.746 372.781L703.809 432.797H685.121C686.578 427.891 688.859 420.512 691.965 410.656C695.453 399.742 698.863 389.32 702.199 379.391C705.875 368.539 708.137 362.461 708.98 361.156C710.551 358.98 712.801 357.32 715.73 356.172C718.668 355.016 721.859 354.438 725.309 354.438C728.715 354.438 731.891 355.016 734.84 356.172C737.797 357.32 740.02 358.98 741.512 361.156C742.469 362.43 744.77 368.484 748.418 379.328C750.98 386.953 754.348 397.375 758.527 410.594C760.828 418 763.152 425.402 765.496 432.797ZM835.844 434.578L786.75 413.422V432.797H769.734V406.984C769.734 400.777 771.285 395.734 774.391 391.859C777.953 387.414 783.203 385.188 790.141 385.188H811.297C813.254 385.188 814.789 384.48 815.906 383.063C816.895 381.805 817.391 380.23 817.391 378.344C817.391 376.43 816.895 374.805 815.906 373.469C814.789 371.969 813.254 371.219 811.297 371.219H769.734V354.781H814.172C820.805 354.781 826.055 357.234 829.922 362.141C833.453 366.59 835.219 372.012 835.219 378.406C835.219 384.844 833.473 390.266 829.984 394.672C826.109 399.578 820.836 402.031 814.172 402.031H803.422L835.844 416.125V434.578ZM919.785 432.797H901.332L880.973 372.781C880.855 372.168 880.418 371.859 879.66 371.859C878.848 371.859 878.305 372.168 878.035 372.781L858.098 432.797H839.41C840.867 427.891 843.148 420.512 846.254 410.656C849.742 399.742 853.152 389.32 856.488 379.391C860.164 368.539 862.426 362.461 863.27 361.156C864.84 358.98 867.09 357.32 870.02 356.172C872.957 355.016 876.148 354.438 879.598 354.438C883.004 354.438 886.18 355.016 889.129 356.172C892.086 357.32 894.309 358.98 895.801 361.156C896.758 362.43 899.059 368.484 902.707 379.328C905.27 386.953 908.637 397.375 912.816 410.594C915.117 418 917.441 425.402 919.785 432.797Z" fill="#21305E"/>
<path d="M543.305 526.23C548.227 526.23 551.742 522.887 551.742 518.184C551.742 513.48 548.227 510.121 543.305 510.121C538.367 510.121 534.852 513.496 534.852 518.184C534.852 522.855 538.367 526.23 543.305 526.23ZM543.305 522.309C540.977 522.309 539.242 520.559 539.242 518.184C539.242 515.793 540.977 514.043 543.305 514.043C545.648 514.043 547.336 515.777 547.336 518.184C547.336 520.574 545.648 522.309 543.305 522.309ZM568.77 513.996L567.02 520.293L564.066 514.043H562.973L560.16 520.23L558.379 513.996H554.113L557.973 525.84H561.254L563.551 520.559L565.879 525.84H569.176L572.941 513.996H568.77ZM583.145 513.668C581.613 513.668 580.285 514.246 579.41 515.23L578.863 513.996H575.988V525.84H580.066V519.527C580.066 518.012 580.801 517.137 582.066 517.137C583.098 517.137 583.629 517.824 583.629 519.199V525.84H587.707V518.621C587.707 515.621 585.879 513.668 583.145 513.668ZM604.602 522.293C603.758 522.293 603.227 521.762 603.227 520.934V517.152H606.102V513.996H603.133V510.559H602.289L596.977 516.199V517.152H599.148V521.605C599.148 524.246 600.758 525.84 603.352 525.84H606.164V522.293H604.602ZM616.949 513.668C615.777 513.668 614.668 514.09 613.793 514.793V509.73H609.715V525.84H613.793V519.527C613.793 518.012 614.559 517.137 615.793 517.137C616.871 517.137 617.355 517.84 617.355 519.199V525.84H621.434V518.715C621.434 515.652 619.668 513.668 616.949 513.668ZM637.687 519.809C637.687 516.355 635.062 513.637 631.25 513.637C627.516 513.637 624.828 516.309 624.828 519.918C624.828 523.543 627.547 526.23 631.25 526.23C634.203 526.23 636.625 524.543 637.453 521.855H633.375C633 522.559 632.187 522.965 631.25 522.965C629.953 522.965 629.094 522.262 628.844 520.902H637.625C637.672 520.527 637.687 520.184 637.687 519.809ZM631.25 516.824C632.484 516.824 633.328 517.465 633.687 518.652H628.906C629.234 517.465 630.062 516.824 631.25 516.824ZM653.246 526.23C656.824 526.23 659.387 524.48 659.387 521.121C659.387 517.637 656.449 516.871 654.168 516.309C652.746 515.934 651.574 515.652 651.574 514.762C651.574 514.043 652.309 513.715 653.043 513.715C653.918 513.715 654.652 514.184 654.652 515.168H658.902C658.902 512.027 656.777 510.137 653.09 510.137C649.48 510.137 647.262 511.871 647.262 514.902C647.262 518.387 650.09 519.059 652.309 519.621C653.777 519.965 654.98 520.246 654.98 521.215C654.98 522.043 654.121 522.527 653.246 522.527C652.277 522.527 651.418 521.98 651.418 520.887H647.059C647.059 524.246 649.496 526.23 653.246 526.23ZM669.465 522.293C668.621 522.293 668.09 521.762 668.09 520.934V517.152H670.965V513.996H667.996V510.559H667.152L661.84 516.199V517.152H664.012V521.605C664.012 524.246 665.621 525.84 668.215 525.84H671.027V522.293H669.465ZM684.137 513.996L683.715 514.918C682.762 514.105 681.512 513.652 680.105 513.652C676.48 513.652 673.902 516.262 673.902 519.918C673.902 523.605 676.48 526.23 680.105 526.23C681.48 526.23 682.715 525.793 683.684 525.012L684.027 525.84H687.184V513.996H684.137ZM680.652 522.637C679.121 522.637 677.996 521.48 677.996 519.918C677.996 518.387 679.121 517.246 680.652 517.246C682.184 517.246 683.309 518.387 683.309 519.918C683.309 521.48 682.184 522.637 680.652 522.637ZM697.254 526.23C700.582 526.23 703.129 524.059 703.582 520.871H699.582C699.254 521.918 698.348 522.59 697.254 522.59C695.832 522.59 694.801 521.48 694.801 519.918C694.801 518.387 695.832 517.293 697.254 517.293C698.332 517.293 699.223 517.934 699.551 518.887H703.551C703.082 515.73 700.613 513.652 697.27 513.652C693.441 513.652 690.723 516.262 690.723 519.918C690.723 523.574 693.457 526.23 697.254 526.23ZM719.031 525.84L714.953 519.652L718.656 513.996H714.078L711.25 518.652V509.73H707.172V525.84H711.25V520.84L714.203 525.84H719.031ZM735.98 526.23C740.902 526.23 744.418 522.887 744.418 518.184C744.418 513.48 740.902 510.121 735.98 510.121C731.043 510.121 727.527 513.496 727.527 518.184C727.527 522.855 731.043 526.23 735.98 526.23ZM735.98 522.309C733.652 522.309 731.918 520.559 731.918 518.184C731.918 515.793 733.652 514.043 735.98 514.043C738.324 514.043 740.012 515.777 740.012 518.184C740.012 520.574 738.324 522.309 735.98 522.309ZM761.449 513.996L759.699 520.293L756.746 514.043H755.652L752.84 520.23L751.059 513.996H746.793L750.652 525.84H753.934L756.23 520.559L758.559 525.84H761.855L765.621 513.996H761.449ZM775.82 513.668C774.289 513.668 772.961 514.246 772.086 515.23L771.539 513.996H768.664V525.84H772.742V519.527C772.742 518.012 773.477 517.137 774.742 517.137C775.773 517.137 776.305 517.824 776.305 519.199V525.84H780.383V518.621C780.383 515.621 778.555 513.668 775.82 513.668ZM797.277 522.293C796.434 522.293 795.902 521.762 795.902 520.934V517.152H798.777V513.996H795.809V510.559H794.965L789.652 516.199V517.152H791.824V521.605C791.824 524.246 793.434 525.84 796.027 525.84H798.84V522.293H797.277ZM809.625 513.668C808.453 513.668 807.344 514.09 806.469 514.793V509.73H802.391V525.84H806.469V519.527C806.469 518.012 807.234 517.137 808.469 517.137C809.547 517.137 810.031 517.84 810.031 519.199V525.84H814.109V518.715C814.109 515.652 812.344 513.668 809.625 513.668ZM830.367 519.809C830.367 516.355 827.742 513.637 823.93 513.637C820.195 513.637 817.508 516.309 817.508 519.918C817.508 523.543 820.227 526.23 823.93 526.23C826.883 526.23 829.305 524.543 830.133 521.855H826.055C825.68 522.559 824.867 522.965 823.93 522.965C822.633 522.965 821.773 522.262 821.523 520.902H830.305C830.352 520.527 830.367 520.184 830.367 519.809ZM823.93 516.824C825.164 516.824 826.008 517.465 826.367 518.652H821.586C821.914 517.465 822.742 516.824 823.93 516.824ZM850.266 514.324V510.496H840.484V525.84H844.766V520.465H849.687V516.762H844.766V514.324H850.266ZM859.629 526.23C863.129 526.23 865.457 524.09 865.457 520.777V513.996H861.379V520.605C861.379 521.824 860.723 522.574 859.629 522.574C858.551 522.574 857.879 521.855 857.879 520.605V513.996H853.801V520.777C853.801 524.09 856.145 526.23 859.629 526.23ZM875.934 522.293C875.09 522.293 874.559 521.762 874.559 520.934V517.152H877.434V513.996H874.465V510.559H873.621L868.309 516.199V517.152H870.48V521.605C870.48 524.246 872.09 525.84 874.684 525.84H877.496V522.293H875.934ZM886.73 526.23C890.23 526.23 892.559 524.09 892.559 520.777V513.996H888.48V520.605C888.48 521.824 887.824 522.574 886.73 522.574C885.652 522.574 884.98 521.855 884.98 520.605V513.996H880.902V520.777C880.902 524.09 883.246 526.23 886.73 526.23ZM903.238 513.965C901.832 513.965 900.832 514.355 899.988 515.324L899.363 513.996H896.613V525.84H900.691V519.84C900.691 518.324 901.316 517.684 902.738 517.684H904.332V513.965H903.238ZM919.699 519.809C919.699 516.355 917.074 513.637 913.262 513.637C909.527 513.637 906.84 516.309 906.84 519.918C906.84 523.543 909.559 526.23 913.262 526.23C916.215 526.23 918.637 524.543 919.465 521.855H915.387C915.012 522.559 914.199 522.965 913.262 522.965C911.965 522.965 911.105 522.262 910.855 520.902H919.637C919.684 520.527 919.699 520.184 919.699 519.809ZM913.262 516.824C914.496 516.824 915.34 517.465 915.699 518.652H910.918C911.246 517.465 912.074 516.824 913.262 516.824Z" fill="#959595"/>
<mask id="mask0_1_3" style="mask-type:luminance" maskUnits="userSpaceOnUse" x="0" y="0" width="1164" height="797">
<path d="M0 9.83484e-05H1163.42V796.679H0V9.83484e-05Z" fill="white"/>
</mask>
<g mask="url(#mask0_1_3)">
<path d="M664.858 462.525C669.19 460.509 672.622 458.358 676.736 457.811C687.045 456.438 692.892 461.257 693.012 471.626C693.104 479.609 692.914 487.594 692.978 495.578C693 498.277 692.018 499.53 689.234 499.575C686.23 499.622 685.696 498.006 685.718 495.462C685.785 487.478 685.762 479.493 685.676 471.51C685.618 466.109 683.578 464.243 678.216 464.314C673.366 464.379 669.612 466.985 665.817 469.53C664.489 470.422 664.882 471.789 664.873 472.994C664.814 480.47 664.708 487.95 664.844 495.425C664.896 498.345 663.944 499.587 660.948 499.582C657.878 499.578 657.528 497.903 657.534 495.413C657.582 478.938 657.577 462.462 657.49 445.986C657.476 443.301 658.013 441.49 661.134 441.515C664.16 441.539 664.948 443.239 664.89 445.969C664.78 451.273 664.858 456.582 664.858 462.525Z" fill="#21305E"/>
</g>
<mask id="mask1_1_3" style="mask-type:luminance" maskUnits="userSpaceOnUse" x="0" y="0" width="1164" height="797">
<path d="M0 9.83484e-05H1163.42V796.679H0V9.83484e-05Z" fill="white"/>
</mask>
<g mask="url(#mask1_1_3)">
<path d="M556.087 495.425C556.141 498.345 555.187 499.587 552.191 499.583C549.123 499.578 548.771 497.903 548.779 495.413C548.827 478.938 548.821 462.462 548.734 445.986C548.719 443.301 549.257 441.49 552.378 441.515C555.403 441.539 556.191 443.239 556.135 445.969C556.025 451.273 555.953 487.95 556.087 495.425Z" fill="#21305E"/>
</g>
<mask id="mask2_1_3" style="mask-type:luminance" maskUnits="userSpaceOnUse" x="0" y="0" width="1164" height="797">
<path d="M0 9.83484e-05H1163.42V796.679H0V9.83484e-05Z" fill="white"/>
</mask>
<g mask="url(#mask2_1_3)">
<path d="M537.454 448.425C535.683 448.478 534.93 447.525 534.933 444.529C534.937 441.459 535.951 441.109 537.461 441.117C547.447 441.165 557.434 441.158 567.419 441.071C569.047 441.057 570.146 441.594 570.13 444.715C570.115 447.741 569.085 448.529 567.431 448.473C564.215 448.362 541.983 448.29 537.454 448.425Z" fill="#21305E"/>
</g>
<path d="M849.737 458.156C843.392 458.457 839.047 462.24 837.979 468.516C836.869 475.052 837.005 481.685 837.747 488.221C838.5 494.8 842.445 498.651 848.407 499.336C853.573 499.925 858.795 499.952 863.961 499.349C870.607 498.581 874.937 493.895 875.389 487.18C875.568 484.66 875.417 482.111 875.417 479.575H875.389C875.389 476.916 875.555 474.244 875.363 471.585C874.732 462.773 869.921 458.252 861.152 458.101C859.195 458.073 857.236 458.041 855.28 458.041C853.431 458.041 851.583 458.069 849.737 458.156ZM854.025 493.128C847.216 493.045 844.844 490.784 844.721 484.056C844.652 479.876 844.625 475.697 844.9 471.531C845.173 467.309 847.503 465.089 851.709 464.857C854.985 464.692 858.287 464.816 861.576 464.912C865.413 465.021 867.332 467.351 867.675 470.9C867.935 473.656 867.729 476.465 867.729 479.245C867.911 491.672 867.149 493.141 856.115 493.141C855.455 493.141 854.76 493.136 854.025 493.128Z" fill="url(#paint0_linear_1_3)"/>
<mask id="mask3_1_3" style="mask-type:luminance" maskUnits="userSpaceOnUse" x="0" y="0" width="1164" height="797">
<path d="M0 6.78308e-05H1163.42V796.679H0V6.78308e-05Z" fill="white"/>
</mask>
<g mask="url(#mask3_1_3)">
<path d="M583.271 465.008C587.532 464.104 592.719 464.171 596.098 465.187C599.78 466.293 599.25 469.571 599.538 472.34C599.798 474.765 598.154 475.656 596.015 475.847L584.087 476.965C580.843 477.023 579.074 477.359 578.667 475.039C577.827 470.256 579.776 465.748 583.271 465.008ZM601.592 493.017C596.522 493.115 591.438 493.141 586.368 493.073C581.023 492.991 578.872 490.703 578.598 485.385C578.502 483.275 579.091 482.467 581.311 482.439C585.875 482.371 590.438 482.013 595 481.795C605.854 481.26 607.458 479.383 606.32 468.461C605.703 462.637 601.771 458.567 595.947 458.211C591.644 457.937 587.314 457.937 583.011 458.156C576.583 458.512 572.02 462.884 571.706 469.324C571.39 475.643 571.363 482.013 571.746 488.332C572.171 495.143 576.57 499.116 583.408 499.472C586.314 499.623 589.246 499.5 592.164 499.5V499.568H601.675C604.278 499.583 605.279 498.144 605.224 495.704C605.17 493.224 603.607 492.991 601.592 493.017Z" fill="#21305E"/>
</g>
<path d="M891.639 462.628C892.253 458.544 890.215 458.051 887.407 458.1C884.077 458.159 884.364 460.332 884.368 462.561C884.387 473.585 884.412 484.609 884.307 495.631C884.284 498.04 884.696 499.557 887.515 499.572C890.22 499.584 891.803 498.895 891.721 495.716C891.548 489.004 892.101 482.243 891.479 475.584C890.976 470.209 893.387 467.613 897.789 465.912C899.201 465.365 900.641 464.824 902.117 464.52C909.007 463.109 912.284 465.632 912.427 472.645C912.581 480.117 912.572 487.596 912.504 495.071C912.477 497.868 912.92 499.685 916.395 499.604C919.616 499.529 920.125 497.909 920.016 495.229C919.867 491.56 919.991 487.881 919.948 484.207C919.887 479.015 920.101 473.792 919.615 468.639C919.011 462.271 915.443 458.885 909.233 457.843C908.148 457.66 907.087 457.573 906.041 457.573C901.08 457.573 896.507 459.544 891.639 462.628Z" fill="url(#paint1_linear_1_3)"/>
<path d="M764.043 461.909C764.1 469.761 763.977 477.616 763.936 485.469C763.928 486.843 764.167 488.177 762.579 489.071C759.247 490.945 755.861 492.652 752.035 493.161C745.96 493.971 743.281 491.585 743.259 485.396C743.229 477.416 743.201 469.435 743.295 461.456C743.323 458.964 742.257 458.045 739.889 458.068C737.557 458.093 736.055 458.603 736.087 461.468C736.187 470.208 735.919 478.952 736.119 487.687C736.323 496.651 742.139 501.241 751.009 499.772C754.783 499.148 758.351 497.853 761.707 496.025C763.001 495.319 764.027 494.771 764.229 496.959C764.485 499.727 766.265 499.576 767.964 499.425C768.385 499.388 768.801 499.351 769.189 499.357C771.693 499.403 771.375 497.429 771.377 495.797C771.384 490.225 771.379 484.651 771.379 479.077H771.399C771.399 473.377 771.301 467.673 771.44 461.977C771.507 459.269 770.671 458.06 767.789 458.047C767.772 458.047 767.755 458.047 767.737 458.047C764.929 458.047 764.023 459.197 764.043 461.909Z" fill="url(#paint2_linear_1_3)"/>
<path d="M790.976 458.199C785.053 458.409 781.617 461.895 781.157 467.705C780.507 475.947 782.612 479.724 788.976 481.111C793.172 482.025 797.457 482.527 801.689 483.289C804.84 483.856 806.211 485.951 806.001 489.012C805.776 492.303 803.423 493.063 800.64 493.073C795.445 493.093 790.249 493.131 785.056 493.039C782.857 493.001 781.337 493.36 781.38 496.048C781.423 498.681 782.72 499.631 785.207 499.563C788.119 499.481 791.035 499.543 793.949 499.543V499.449C796.864 499.449 799.781 499.56 802.691 499.427C809.233 499.131 812.703 495.657 813.065 489.219C813.515 481.228 810.44 477.545 802.391 476.463C799.133 476.023 795.836 475.791 792.62 475.151C789.461 474.521 787.851 472.457 788.259 469.091C788.667 465.736 790.841 464.741 793.876 464.791C798.437 464.865 803 464.812 807.557 464.964C809.861 465.04 811.289 464.276 811.364 461.871C811.44 459.436 810.279 458.097 807.7 458.117C805.679 458.133 803.657 458.123 801.636 458.112C800.324 458.105 799.013 458.097 797.701 458.097C795.459 458.097 793.216 458.119 790.976 458.199Z" fill="url(#paint3_linear_1_3)"/>
<path d="M724.945 441.528C723.297 441.563 710.249 441.587 708.601 441.583C701.335 441.583 701.389 442.819 701.451 454.753C701.465 457.653 701.449 486.376 701.341 495.247C701.309 497.931 701.664 499.595 704.956 499.537C708.283 499.477 708.533 497.643 708.465 495.061C708.348 490.627 708.432 486.187 708.432 481.751H708.475C708.475 477.06 708.56 472.367 708.437 467.68C708.383 465.58 708.989 464.648 711.209 464.805C712.529 464.9 715.799 464.884 718.621 464.865C720.389 464.856 721.981 464.845 722.811 464.861C725.099 464.905 725.548 463.429 725.543 461.612C725.539 459.821 725.141 458.279 722.865 458.276C721.724 458.275 715.445 458.267 714.305 458.267C708.276 458.265 708.376 458.267 708.416 452.399C708.439 448.988 709.993 447.533 713.289 447.619C714.232 447.644 716.159 447.643 718.208 447.641C720.844 447.64 723.681 447.64 724.892 447.692C727.241 447.796 727.997 446.609 728.001 444.44C728.007 442.343 726.995 441.527 725.095 441.527C725.045 441.527 724.996 441.527 724.945 441.528Z" fill="url(#paint4_linear_1_3)"/>
<mask id="mask4_1_3" style="mask-type:luminance" maskUnits="userSpaceOnUse" x="0" y="0" width="1164" height="797">
<path d="M0 9.83484e-05H1163.42V796.679H0V9.83484e-05Z" fill="white"/>
</mask>
<g mask="url(#mask4_1_3)">
<path d="M626.908 499.313C620.615 498.813 616.33 494.677 615.778 488.381C615.223 482.069 615.204 475.715 615.814 469.405C616.507 462.231 620.982 458.223 628.152 458.123C633.218 458.053 638.286 458.175 643.351 458.098C645.812 458.061 647.207 458.921 647.26 461.545C647.314 464.259 645.886 464.951 643.411 464.889C638.728 464.771 634.04 464.879 629.354 464.901C625.534 464.919 623.347 466.899 623.188 470.646C622.979 475.573 622.892 480.522 623.115 485.446C623.36 490.858 625.643 492.919 631.011 493.031C635.316 493.121 639.627 493.142 643.93 493.015C646.134 492.951 647.3 493.65 647.312 495.959C647.326 498.221 646.527 499.589 643.999 499.521C641.215 499.447 629.802 499.542 626.908 499.313Z" fill="#21305E"/>
</g>
<path d="M821.687 461.511C821.823 467.209 821.728 472.913 821.732 478.615C821.736 484.317 821.84 490.023 821.691 495.72C821.619 498.46 822.536 499.661 825.357 499.66C828.137 499.656 829.151 498.511 829.132 495.757C829.045 484.353 829.055 472.948 829.135 461.545C829.155 458.812 827.812 458.017 825.389 457.997C825.359 457.997 825.328 457.997 825.296 457.997C822.92 457.997 821.621 458.779 821.687 461.511Z" fill="url(#paint5_linear_1_3)"/>
<path d="M825.649 442.577C822.819 442.588 821.088 443.792 821.057 446.827C821.028 449.709 822.327 451.307 825.335 451.377C828.291 451.447 829.761 450 829.949 447.288C829.907 444.295 828.7 442.576 825.681 442.576C825.671 442.576 825.66 442.576 825.649 442.577Z" fill="url(#paint6_linear_1_3)"/>
<mask id="mask5_1_3" style="mask-type:luminance" maskUnits="userSpaceOnUse" x="0" y="0" width="1164" height="797">
<path d="M0 9.83484e-05H1163.42V796.679H0V9.83484e-05Z" fill="white"/>
</mask>
<g mask="url(#mask5_1_3)">
<path d="M506.95 437.211C506.95 442.706 502.486 447.168 496.993 447.168C491.481 447.168 487.018 442.706 487.018 437.211C487.018 435.242 487.578 433.434 488.571 431.899C489.313 430.687 490.325 429.658 491.499 428.899C493.071 427.85 494.95 427.236 496.993 427.236C502.486 427.236 506.95 431.699 506.95 437.211Z" fill="#21305E"/>
</g>
<mask id="mask6_1_3" style="mask-type:luminance" maskUnits="userSpaceOnUse" x="0" y="0" width="1164" height="797">
<path d="M0 6.78308e-05H1163.42V796.679H0V6.78308e-05Z" fill="white"/>
</mask>
<g mask="url(#mask6_1_3)">
<path d="M266.89 442.47C266.89 449.499 261.198 455.193 254.186 455.193C247.157 455.193 241.482 449.499 241.482 442.47C241.482 435.458 247.157 429.766 254.186 429.766C258.198 429.766 261.794 431.627 264.108 434.554C265.029 435.693 265.752 436.994 266.222 438.422C266.656 439.687 266.89 441.061 266.89 442.47Z" fill="#21305E"/>
</g>
<mask id="mask7_1_3" style="mask-type:luminance" maskUnits="userSpaceOnUse" x="0" y="0" width="1164" height="797">
<path d="M0 6.78308e-05H1163.42V796.679H0V6.78308e-05Z" fill="white"/>
</mask>
<g mask="url(#mask7_1_3)">
<path d="M384.101 547.23C384.101 555.669 377.252 562.501 368.831 562.501C360.392 562.501 353.543 555.669 353.543 547.23C353.543 540.579 357.808 534.905 363.735 532.809C365.325 532.249 367.043 531.942 368.831 531.942C369.536 531.942 370.24 531.995 370.928 532.086C378.355 533.117 384.101 539.495 384.101 547.23Z" fill="#21305E"/>
</g>
<mask id="mask8_1_3" style="mask-type:luminance" maskUnits="userSpaceOnUse" x="0" y="0" width="1164" height="797">
<path d="M0 9.83484e-05H1163.42V796.679H0V9.83484e-05Z" fill="white"/>
</mask>
<g mask="url(#mask8_1_3)">
<path d="M475.037 326.314C475.037 328.607 473.177 330.467 470.884 330.467C468.591 330.467 466.731 328.607 466.731 326.314C466.731 324.019 468.591 322.161 470.884 322.161C473.177 322.161 475.037 324.019 475.037 326.314Z" fill="#21305E"/>
</g>
<mask id="mask9_1_3" style="mask-type:luminance" maskUnits="userSpaceOnUse" x="0" y="0" width="1164" height="797">
<path d="M0 6.78308e-05H1163.42V796.679H0V6.78308e-05Z" fill="white"/>
</mask>
<g mask="url(#mask9_1_3)">
<path d="M463.651 495.22C463.651 508.232 453.098 518.803 440.069 518.803C427.039 518.803 416.485 508.232 416.485 495.22C416.485 492.22 417.045 489.365 418.058 486.745C420.606 480.131 426.045 474.944 432.841 472.776C434.159 472.341 435.533 472.035 436.959 471.855C437.973 471.709 439.021 471.637 440.069 471.637C453.098 471.637 463.651 482.191 463.651 495.22Z" fill="#21305E"/>
</g>
<mask id="mask10_1_3" style="mask-type:luminance" maskUnits="userSpaceOnUse" x="0" y="0" width="1164" height="797">
<path d="M0 6.78308e-05H1163.42V796.679H0V6.78308e-05Z" fill="white"/>
</mask>
<g mask="url(#mask10_1_3)">
<path d="M435.659 319.567C435.659 324.229 432.46 328.151 428.14 329.235C427.364 329.433 426.551 329.541 425.702 329.541C424.4 329.541 423.171 329.289 422.032 328.837C418.328 327.373 415.726 323.777 415.726 319.567C415.726 314.055 420.19 309.609 425.702 309.609C431.195 309.609 435.659 314.055 435.659 319.567Z" fill="#21305E"/>
</g>
<mask id="mask11_1_3" style="mask-type:luminance" maskUnits="userSpaceOnUse" x="0" y="0" width="1164" height="797">
<path d="M0 9.83484e-05H1163.42V796.679H0V9.83484e-05Z" fill="white"/>
</mask>
<g mask="url(#mask11_1_3)">
<path d="M496.993 370.781C496.993 385.582 484.993 397.562 470.212 397.562C457.345 397.562 446.629 388.527 444.026 376.437C443.629 374.613 443.429 372.714 443.429 370.781C443.429 355.999 455.41 343.999 470.212 343.999C484.993 343.999 496.993 355.999 496.993 370.781Z" fill="#21305E"/>
</g>
<path d="M414.172 398.881L415.725 420.061L419.196 418.2L432.84 472.776C434.159 472.341 435.532 472.035 436.96 471.855L437.032 471.637L423.84 414.857L435.443 409.309C435.443 409.309 451.289 402.731 464.844 412.289C472.308 417.549 482.337 426.296 488.572 431.899C489.313 430.687 490.325 429.657 491.5 428.899V428.88L456.585 397.563H470.212C457.345 397.563 446.628 388.527 444.027 376.437L420.299 395.159L428.141 329.236C427.364 329.433 426.551 329.541 425.701 329.541C424.4 329.541 423.172 329.289 422.033 328.837L414.172 398.881Z" fill="url(#paint7_linear_1_3)"/>
<mask id="mask12_1_3" style="mask-type:luminance" maskUnits="userSpaceOnUse" x="0" y="0" width="1164" height="797">
<path d="M0 9.83484e-05H1163.42V796.679H0V9.83484e-05Z" fill="white"/>
</mask>
<g mask="url(#mask12_1_3)">
<path d="M415.726 420.061C408.859 424.38 382.746 444.693 382.746 444.693H381.734C380.667 436.687 376.891 429.549 371.342 424.236L371.325 424.219L370.927 421.507C370.927 421.507 377.162 414.587 386.921 411.479C396.679 408.351 414.171 398.881 414.171 398.881L415.726 420.061Z" fill="#21305E"/>
</g>
<path d="M354.265 483.565C357.916 497.624 363.572 531.833 363.735 532.808C365.325 532.249 367.041 531.941 368.831 531.941C369.536 531.941 370.241 531.996 370.927 532.085V496.143C370.927 492.401 371.505 487.956 374.235 485.571C376.963 483.185 388.872 482.009 395.016 486.6C401.143 491.208 416.485 495.221 416.485 495.221C416.485 492.221 417.045 489.365 418.057 486.745C415.239 486.185 411.064 485.064 405.913 482.86C397.709 479.319 383.668 467.355 379.113 463.396C374.649 473.588 365.433 481.252 354.265 483.565Z" fill="url(#paint8_linear_1_3)"/>
<mask id="mask13_1_3" style="mask-type:luminance" maskUnits="userSpaceOnUse" x="0" y="0" width="1164" height="797">
<path d="M0 9.83484e-05H1163.42V796.679H0V9.83484e-05Z" fill="white"/>
</mask>
<g mask="url(#mask13_1_3)">
<path d="M308.292 499.991C308.292 504.924 304.299 508.9 299.383 508.9C294.468 508.9 290.492 504.924 290.492 499.991C290.492 495.075 294.468 491.1 299.383 491.1C300.287 491.1 301.153 491.227 301.967 491.479C303.251 491.878 304.388 492.527 305.347 493.395C307.153 495.022 308.292 497.371 308.292 499.991Z" fill="#21305E"/>
</g>
<mask id="mask14_1_3" style="mask-type:luminance" maskUnits="userSpaceOnUse" x="0" y="0" width="1164" height="797">
<path d="M0 9.83484e-05H1163.42V796.679H0V9.83484e-05Z" fill="white"/>
</mask>
<g mask="url(#mask14_1_3)">
<path d="M320.4 471.8L305.345 493.396C304.388 492.528 303.251 491.877 301.967 491.48L316.912 466.83C317.924 468.584 319.08 470.245 320.4 471.8Z" fill="#21305E"/>
</g>
<mask id="mask15_1_3" style="mask-type:luminance" maskUnits="userSpaceOnUse" x="0" y="0" width="1164" height="797">
<path d="M0 9.83484e-05H1163.42V796.679H0V9.83484e-05Z" fill="white"/>
</mask>
<g mask="url(#mask15_1_3)">
<path d="M284.095 348.571C284.095 350.939 283.516 353.179 282.485 355.15C280.516 358.944 276.884 361.727 272.565 362.559C271.679 362.739 270.776 362.83 269.836 362.83C261.975 362.83 255.577 356.451 255.577 348.571C255.577 340.692 261.975 334.312 269.836 334.312C277.715 334.312 284.095 340.692 284.095 348.571Z" fill="#21305E"/>
</g>
<mask id="mask16_1_3" style="mask-type:luminance" maskUnits="userSpaceOnUse" x="0" y="0" width="1164" height="797">
<path d="M0 6.78308e-05H1163.42V796.679H0V6.78308e-05Z" fill="white"/>
</mask>
<g mask="url(#mask16_1_3)">
<path d="M350.344 414.622C349.296 414.514 348.229 414.459 347.145 414.459C333.068 414.459 320.941 422.79 315.429 434.79L304.045 423.405C299.528 418.887 291.811 424.091 291.811 424.091L266.221 438.422C265.752 436.994 265.029 435.694 264.108 434.555C272.981 428.771 290.545 417.387 295.119 415.002C300.052 412.418 299.817 403.798 299.817 403.798C299.817 396.75 293.545 388.039 293.545 388.039L272.565 362.559C276.884 361.727 280.516 358.945 282.485 355.15C291.739 364.709 309.9 383.485 313.371 386.793C318.068 391.257 323.455 390.858 323.455 390.858C323.455 390.858 324.989 390.587 327.375 390.714C331.387 390.895 337.82 392.178 343.387 397.671C345.717 399.985 347.308 402.315 348.356 404.539H348.373C350.363 408.695 350.525 412.418 350.344 414.622Z" fill="#21305E"/>
</g>
<path d="M319.496 317.759C319.496 332.307 328.387 344.757 341.056 349.999C344.561 351.445 348.356 352.349 352.332 352.565C353 352.619 353.687 352.637 354.375 352.637C373.637 352.637 389.251 337.024 389.251 317.759C389.251 298.495 373.637 282.881 354.375 282.881C335.109 282.881 319.496 298.495 319.496 317.759Z" fill="url(#paint9_linear_1_3)"/>
<path d="M335.849 373.365C331.929 383.629 328.876 388.617 327.376 390.713C331.387 390.895 337.82 392.177 343.385 397.672C345.717 399.984 347.308 402.316 348.356 404.539H348.375C348.375 404.539 347.688 376.907 352.332 352.565C348.356 352.349 344.561 351.445 341.056 349.999C340.369 356.487 338.904 365.379 335.849 373.365Z" fill="url(#paint10_linear_1_3)"/>
<mask id="mask17_1_3" style="mask-type:luminance" maskUnits="userSpaceOnUse" x="0" y="0" width="1164" height="797">
<path d="M0 6.78308e-05H1163.42V796.679H0V6.78308e-05Z" fill="white"/>
</mask>
<g mask="url(#mask17_1_3)">
<path d="M382.059 449.373C382.059 454.361 381.011 459.114 379.114 463.397C374.65 473.589 365.434 481.252 354.265 483.565C351.97 484.034 349.585 484.288 347.145 484.288C336.411 484.288 326.797 479.426 320.399 471.8C319.081 470.245 317.923 468.584 316.911 466.83C313.93 461.698 312.231 455.734 312.231 449.373C312.231 444.169 313.37 439.217 315.43 434.789C320.942 422.79 333.067 414.458 347.145 414.458C348.229 414.458 349.295 414.513 350.343 414.622C358.458 415.345 365.795 418.85 371.325 424.218L371.342 424.236C376.891 429.549 380.667 436.686 381.734 444.693C381.95 446.21 382.059 447.782 382.059 449.373Z" fill="#21305E" stroke="url(#paint11_linear_1_3)" stroke-width="0.666667" stroke-miterlimit="10"/>
</g>
<path d="M122.984 58.4922H113.734C113.316 58.4922 112.984 58.6562 112.734 58.9766C112.492 59.2891 112.375 59.6602 112.375 60.0859C112.375 60.5039 112.488 60.8633 112.719 61.1641C112.957 61.457 113.297 61.6016 113.734 61.6016H119.172C120.641 61.6016 121.801 62.1563 122.656 63.2578C123.438 64.2578 123.828 65.4766 123.828 66.9141C123.828 68.3516 123.441 69.5664 122.672 70.5547C121.816 71.6602 120.648 72.2109 119.172 72.2109H109.266V68.5234H118.547C118.941 68.5234 119.266 68.3516 119.516 68.0078C119.734 67.707 119.844 67.3359 119.844 66.8984C119.844 66.4844 119.727 66.125 119.5 65.8203C119.281 65.5195 118.961 65.3672 118.547 65.3672H113.094C111.613 65.3672 110.445 64.8203 109.594 63.7266C108.801 62.7383 108.406 61.5313 108.406 60.1016C108.406 58.6758 108.797 57.4727 109.578 56.4922C110.441 55.3906 111.613 54.8359 113.094 54.8359H122.984V58.4922ZM141.719 54.9609C141.383 56.1094 140.875 57.7656 140.188 59.9297C139.32 62.6602 138.566 65 137.922 66.9453C137.109 69.375 136.602 70.7383 136.406 71.0391C136.07 71.5078 135.566 71.8789 134.891 72.1484C134.223 72.4063 133.516 72.5391 132.766 72.5391C132.004 72.5391 131.297 72.4141 130.641 72.1641C129.992 71.9063 129.5 71.5313 129.156 71.0391C128.938 70.75 128.422 69.3906 127.609 66.9609C127.023 65.1914 126.273 62.8516 125.359 59.9453C124.836 58.2891 124.32 56.6289 123.813 54.9609H127.938L132.453 68.4609C132.484 68.6094 132.582 68.6797 132.75 68.6797C132.926 68.6797 133.051 68.6094 133.125 68.4609L137.547 54.9609H141.719ZM159.68 72.2109H155.57L151.039 58.8516C151.016 58.707 150.918 58.6328 150.742 58.6328C150.563 58.6328 150.449 58.707 150.398 58.8516L145.945 72.2109H141.789C142.109 71.1172 142.617 69.4727 143.305 67.2734C144.086 64.8477 144.844 62.5313 145.586 60.3203C146.406 57.9062 146.914 56.5508 147.102 56.2578C147.453 55.7695 147.953 55.3984 148.602 55.1484C149.258 54.8906 149.969 54.7578 150.742 54.7578C151.5 54.7578 152.211 54.8906 152.867 55.1484C153.523 55.3984 154.016 55.7695 154.352 56.2578C154.559 56.5391 155.07 57.8906 155.883 60.3047C156.453 62.0039 157.203 64.3281 158.133 67.2734C158.641 68.9219 159.156 70.5664 159.68 72.2109ZM175.359 72.6016L164.422 67.8984V72.2109H160.641V66.4609C160.641 65.0781 160.984 63.957 161.672 63.1016C162.461 62.1016 163.629 61.6016 165.172 61.6016H169.891C170.328 61.6016 170.672 61.4453 170.922 61.1328C171.141 60.8516 171.25 60.5039 171.25 60.0859C171.25 59.6602 171.141 59.2969 170.922 58.9922C170.672 58.6602 170.328 58.4922 169.891 58.4922H160.641V54.8359H170.531C172.008 54.8359 173.176 55.3828 174.031 56.4766C174.82 57.4687 175.219 58.6758 175.219 60.1016C175.219 61.5313 174.828 62.7383 174.047 63.7266C173.191 64.8203 172.02 65.3672 170.531 65.3672H168.141L175.359 68.4922V72.6016ZM194.043 72.2109H189.934L185.402 58.8516C185.379 58.707 185.281 58.6328 185.105 58.6328C184.926 58.6328 184.813 58.707 184.762 58.8516L180.309 72.2109H176.152C176.473 71.1172 176.98 69.4727 177.668 67.2734C178.449 64.8477 179.207 62.5313 179.949 60.3203C180.77 57.9062 181.277 56.5508 181.465 56.2578C181.816 55.7695 182.316 55.3984 182.965 55.1484C183.621 54.8906 184.332 54.7578 185.105 54.7578C185.863 54.7578 186.574 54.8906 187.23 55.1484C187.887 55.3984 188.379 55.7695 188.715 56.2578C188.922 56.5391 189.434 57.8906 190.246 60.3047C190.816 62.0039 191.566 64.3281 192.496 67.2734C193.004 68.9219 193.52 70.5664 194.043 72.2109Z" fill="#2E2D2D"/>
<path d="M110.199 93.0273C111.309 93.0273 112.09 92.2773 112.09 91.2305C112.09 90.168 111.309 89.4336 110.199 89.4336C109.105 89.4336 108.324 90.1836 108.324 91.2305C108.324 92.2617 109.105 93.0273 110.199 93.0273ZM110.199 92.1523C109.684 92.1523 109.293 91.7617 109.293 91.2305C109.293 90.6992 109.684 90.3086 110.199 90.3086C110.73 90.3086 111.105 90.6836 111.105 91.2305C111.105 91.7617 110.73 92.1523 110.199 92.1523ZM115.879 90.293L115.488 91.6992L114.832 90.3086H114.582L113.957 91.6836L113.566 90.293H112.613L113.473 92.9336H114.207L114.723 91.7617L115.238 92.9336H115.973L116.801 90.293H115.879ZM119.074 90.2148C118.73 90.2148 118.449 90.3398 118.246 90.5742L118.121 90.293H117.48V92.9336H118.387V91.5273C118.387 91.1836 118.559 90.9961 118.84 90.9961C119.074 90.9961 119.184 91.1367 119.184 91.4492V92.9336H120.09V91.3242C120.09 90.6523 119.684 90.2148 119.074 90.2148ZM123.859 92.1367C123.672 92.1367 123.547 92.0273 123.547 91.8398V90.9961H124.187V90.293H123.531V89.5273H123.344L122.156 90.7773V90.9961H122.641V91.9961C122.641 92.5742 123 92.9336 123.578 92.9336H124.203V92.1367H123.859ZM126.602 90.2148C126.352 90.2148 126.102 90.3086 125.898 90.4648V89.3398H124.992V92.9336H125.898V91.5273C125.898 91.1836 126.07 90.9961 126.352 90.9961C126.586 90.9961 126.695 91.1523 126.695 91.4492V92.9336H127.602V91.3398C127.602 90.6523 127.211 90.2148 126.602 90.2148ZM131.227 91.5898C131.227 90.8086 130.648 90.2148 129.789 90.2148C128.961 90.2148 128.352 90.8086 128.352 91.6055C128.352 92.418 128.961 93.0273 129.789 93.0273C130.445 93.0273 130.992 92.6523 131.18 92.043H130.273C130.18 92.1992 130.008 92.293 129.789 92.293C129.508 92.293 129.305 92.1367 129.258 91.8398H131.211C131.227 91.7461 131.227 91.668 131.227 91.5898ZM129.789 90.918C130.07 90.918 130.258 91.0586 130.336 91.3242H129.273C129.336 91.0586 129.523 90.918 129.789 90.918ZM134.695 93.0273C135.492 93.0273 136.055 92.6367 136.055 91.8867C136.055 91.1055 135.398 90.9336 134.898 90.8086C134.57 90.7305 134.32 90.6523 134.32 90.4648C134.32 90.3086 134.477 90.2305 134.648 90.2305C134.836 90.2305 135.008 90.3242 135.008 90.5586H135.945C135.945 89.8555 135.477 89.4336 134.648 89.4336C133.852 89.4336 133.352 89.8242 133.352 90.4961C133.352 91.2773 133.992 91.418 134.477 91.543C134.805 91.6211 135.07 91.6836 135.07 91.9023C135.07 92.0898 134.883 92.1992 134.695 92.1992C134.477 92.1992 134.289 92.0742 134.289 91.8242H133.305C133.305 92.5742 133.852 93.0273 134.695 93.0273ZM138.305 92.1367C138.117 92.1367 137.992 92.0273 137.992 91.8398V90.9961H138.633V90.293H137.977V89.5273H137.789L136.602 90.7773V90.9961H137.086V91.9961C137.086 92.5742 137.445 92.9336 138.023 92.9336H138.648V92.1367H138.305ZM141.578 90.293L141.484 90.4961C141.266 90.3242 140.984 90.2148 140.672 90.2148C139.859 90.2148 139.281 90.793 139.281 91.6055C139.281 92.4336 139.859 93.0273 140.672 93.0273C140.984 93.0273 141.25 92.918 141.469 92.7461L141.547 92.9336H142.25V90.293L141.578 90.293ZM140.797 92.2148C140.453 92.2148 140.203 91.9648 140.203 91.6055C140.203 91.2773 140.453 91.0117 140.797 91.0117C141.141 91.0117 141.391 91.2773 141.391 91.6055C141.391 91.9648 141.141 92.2148 140.797 92.2148ZM144.496 93.0273C145.23 93.0273 145.809 92.543 145.902 91.8242H145.012C144.934 92.0586 144.73 92.2148 144.496 92.2148C144.168 92.2148 143.949 91.9648 143.949 91.6055C143.949 91.2773 144.168 91.0273 144.496 91.0273C144.73 91.0273 144.934 91.168 145.012 91.3867H145.902C145.793 90.6836 145.246 90.2148 144.496 90.2148C143.637 90.2148 143.027 90.793 143.027 91.6055C143.027 92.4336 143.652 93.0273 144.496 93.0273ZM149.344 92.9336L148.437 91.5586L149.266 90.293H148.234L147.609 91.3242V89.3398H146.703V92.9336H147.609V91.8242L148.266 92.9336H149.344ZM153.113 93.0273C154.223 93.0273 155.004 92.2773 155.004 91.2305C155.004 90.168 154.223 89.4336 153.113 89.4336C152.02 89.4336 151.238 90.1836 151.238 91.2305C151.238 92.2617 152.02 93.0273 153.113 93.0273ZM153.113 92.1523C152.598 92.1523 152.207 91.7617 152.207 91.2305C152.207 90.6992 152.598 90.3086 153.113 90.3086C153.645 90.3086 154.02 90.6836 154.02 91.2305C154.02 91.7617 153.645 92.1523 153.113 92.1523ZM158.793 90.293L158.402 91.6992L157.746 90.3086H157.496L156.871 91.6836L156.48 90.293H155.527L156.387 92.9336H157.121L157.637 91.7617L158.152 92.9336H158.887L159.715 90.293H158.793ZM161.988 90.2148C161.645 90.2148 161.363 90.3398 161.16 90.5742L161.035 90.293H160.395V92.9336H161.301V91.5273C161.301 91.1836 161.473 90.9961 161.754 90.9961C161.988 90.9961 162.098 91.1367 162.098 91.4492V92.9336H163.004V91.3242C163.004 90.6523 162.598 90.2148 161.988 90.2148ZM166.773 92.1367C166.586 92.1367 166.461 92.0273 166.461 91.8398V90.9961H167.102V90.293H166.445V89.5273H166.258L165.07 90.7773V90.9961H165.555V91.9961C165.555 92.5742 165.914 92.9336 166.492 92.9336H167.117V92.1367H166.773ZM169.516 90.2148C169.266 90.2148 169.016 90.3086 168.812 90.4648V89.3398H167.906V92.9336H168.812V91.5273C168.812 91.1836 168.984 90.9961 169.266 90.9961C169.5 90.9961 169.609 91.1523 169.609 91.4492V92.9336H170.516V91.3398C170.516 90.6523 170.125 90.2148 169.516 90.2148ZM174.141 91.5898C174.141 90.8086 173.562 90.2148 172.703 90.2148C171.875 90.2148 171.266 90.8086 171.266 91.6055C171.266 92.418 171.875 93.0273 172.703 93.0273C173.359 93.0273 173.906 92.6523 174.094 92.043H173.187C173.094 92.1992 172.922 92.293 172.703 92.293C172.422 92.293 172.219 92.1367 172.172 91.8398H174.125C174.141 91.7461 174.141 91.668 174.141 91.5898ZM172.703 90.918C172.984 90.918 173.172 91.0586 173.25 91.3242H172.187C172.25 91.0586 172.437 90.918 172.703 90.918ZM178.578 90.3711V89.5117H176.391V92.9336H177.344V91.7305H178.437V90.9023H177.344V90.3711L178.578 90.3711ZM180.652 93.0273C181.434 93.0273 181.949 92.543 181.949 91.8086V90.293H181.043V91.7617C181.043 92.043 180.902 92.1992 180.652 92.1992C180.418 92.1992 180.262 92.043 180.262 91.7617V90.293H179.355V91.8086C179.355 92.543 179.871 93.0273 180.652 93.0273ZM184.293 92.1367C184.105 92.1367 183.98 92.0273 183.98 91.8398V90.9961H184.621V90.293H183.965V89.5273H183.777L182.59 90.7773V90.9961H183.074V91.9961C183.074 92.5742 183.434 92.9336 184.012 92.9336H184.637V92.1367H184.293ZM186.691 93.0273C187.473 93.0273 187.988 92.543 187.988 91.8086V90.293H187.082V91.7617C187.082 92.043 186.941 92.1992 186.691 92.1992C186.457 92.1992 186.301 92.043 186.301 91.7617V90.293H185.395V91.8086C185.395 92.543 185.91 93.0273 186.691 93.0273ZM190.375 90.2773C190.062 90.2773 189.828 90.3711 189.641 90.5898L189.5 90.293H188.891V92.9336H189.797V91.5898C189.797 91.2617 189.937 91.1211 190.25 91.1211H190.609V90.2773H190.375ZM194.039 91.5898C194.039 90.8086 193.461 90.2148 192.602 90.2148C191.773 90.2148 191.164 90.8086 191.164 91.6055C191.164 92.418 191.773 93.0273 192.602 93.0273C193.258 93.0273 193.805 92.6523 193.992 92.043H193.086C192.992 92.1992 192.82 92.293 192.602 92.293C192.32 92.293 192.117 92.1367 192.07 91.8398H194.023C194.039 91.7461 194.039 91.668 194.039 91.5898ZM192.602 90.918C192.883 90.918 193.07 91.0586 193.148 91.3242H192.086C192.148 91.0586 192.336 90.918 192.602 90.918Z" fill="#2E2D2D"/>
<mask id="mask18_1_3" style="mask-type:luminance" maskUnits="userSpaceOnUse" x="0" y="0" width="1164" height="797">
<path d="M0 5.2572e-05H1163.42V796.679H0V5.2572e-05Z" fill="white"/>
</mask>
<g mask="url(#mask18_1_3)">
<path d="M137.275 78.8302C138.24 78.3822 139.004 77.9022 139.92 77.7808C142.216 77.4742 143.519 78.5488 143.546 80.8582C143.566 82.6355 143.524 84.4142 143.538 86.1915C143.543 86.7942 143.324 87.0728 142.704 87.0822C142.035 87.0928 141.915 86.7328 141.92 86.1662C141.936 84.3875 141.931 82.6102 141.912 80.8315C141.899 79.6288 141.444 79.2128 140.25 79.2288C139.17 79.2435 138.334 79.8235 137.488 80.3902C137.192 80.5888 137.28 80.8942 137.278 81.1622C137.266 82.8275 137.242 84.4942 137.271 86.1582C137.283 86.8088 137.071 87.0848 136.404 87.0835C135.72 87.0835 135.642 86.7102 135.643 86.1555C135.655 82.4862 135.654 78.8168 135.634 75.1475C135.631 74.5488 135.75 74.1448 136.444 74.1515C137.119 74.1568 137.295 74.5355 137.282 75.1422C137.258 76.3248 137.275 77.5075 137.275 78.8302Z" fill="#2E2D2D"/>
</g>
<mask id="mask19_1_3" style="mask-type:luminance" maskUnits="userSpaceOnUse" x="0" y="0" width="1164" height="797">
<path d="M0 6.78308e-05H1163.42V796.679H0V6.78308e-05Z" fill="white"/>
</mask>
<g mask="url(#mask19_1_3)">
<path d="M113.048 86.1583C113.06 86.8089 112.848 87.0849 112.18 87.0836C111.496 87.0836 111.419 86.7103 111.42 86.1556C111.431 82.4863 111.43 78.8169 111.41 75.1476C111.407 74.5489 111.527 74.1449 112.222 74.1516C112.896 74.1569 113.072 74.5356 113.059 75.1423C113.034 76.3249 113.019 84.4929 113.048 86.1583Z" fill="#2E2D2D"/>
</g>
<mask id="mask20_1_3" style="mask-type:luminance" maskUnits="userSpaceOnUse" x="0" y="0" width="1164" height="797">
<path d="M0 8.30896e-05H1163.42V796.679H0V8.30896e-05Z" fill="white"/>
</mask>
<g mask="url(#mask20_1_3)">
<path d="M108.898 75.6901C108.505 75.7021 108.337 75.4901 108.337 74.8221C108.338 74.1381 108.563 74.0608 108.899 74.0621C111.123 74.0728 113.349 74.0715 115.573 74.0515C115.935 74.0488 116.179 74.1688 116.175 74.8635C116.173 75.5381 115.943 75.7128 115.575 75.7008C114.859 75.6755 109.907 75.6608 108.898 75.6901Z" fill="#2E2D2D"/>
</g>
<mask id="mask21_1_3" style="mask-type:luminance" maskUnits="userSpaceOnUse" x="0" y="0" width="1164" height="797">
<path d="M0 3.73132e-05H1163.42V796.679H0V3.73132e-05Z" fill="white"/>
</mask>
<g mask="url(#mask21_1_3)">
<path d="M179.408 85.6465C177.891 85.6279 177.363 85.1239 177.335 83.6252C177.32 82.6959 177.315 81.7639 177.375 80.8372C177.436 79.8972 177.955 79.4012 178.892 79.3492C179.621 79.3132 180.357 79.3412 181.089 79.3625C181.944 79.3865 182.372 79.9052 182.448 80.6959C182.505 81.3092 182.46 81.9345 182.46 82.5545C182.503 85.4879 182.311 85.6799 179.408 85.6465ZM184.172 82.6279H184.165C184.165 82.0359 184.203 81.4412 184.16 80.8479C184.019 78.8865 182.948 77.8785 180.995 77.8452C180.147 77.8332 179.297 77.8172 178.452 77.8572C177.04 77.9239 176.072 78.7665 175.833 80.1652C175.587 81.6199 175.617 83.0972 175.781 84.5545C175.949 86.0185 176.828 86.8759 178.157 87.0292C179.307 87.1599 180.469 87.1665 181.621 87.0319C183.101 86.8612 184.065 85.8172 184.165 84.3212C184.205 83.7599 184.172 83.1932 184.172 82.6279Z" fill="#2E2D2D"/>
</g>
<mask id="mask22_1_3" style="mask-type:luminance" maskUnits="userSpaceOnUse" x="0" y="0" width="1164" height="797">
<path d="M0 9.83484e-05H1163.42V796.679H0V9.83484e-05Z" fill="white"/>
</mask>
<g mask="url(#mask22_1_3)">
<path d="M119.103 79.3835C120.052 79.1821 121.207 79.1968 121.96 79.4235C122.78 79.6701 122.662 80.3995 122.726 81.0168C122.784 81.5568 122.418 81.7555 121.942 81.7981L119.284 82.0475C118.562 82.0595 118.168 82.1341 118.078 81.6181C117.89 80.5515 118.324 79.5488 119.103 79.3835ZM123.184 85.6221C122.054 85.6435 120.922 85.6501 119.792 85.6341C118.603 85.6155 118.123 85.1061 118.062 83.9221C118.04 83.4515 118.172 83.2728 118.666 83.2661C119.683 83.2501 120.699 83.1715 121.715 83.1221C124.132 83.0035 124.49 82.5848 124.236 80.1528C124.099 78.8555 123.223 77.9488 121.926 77.8701C120.967 77.8088 120.003 77.8088 119.046 77.8568C117.614 77.9368 116.598 78.9101 116.527 80.3448C116.456 81.7515 116.451 83.1715 116.536 84.5781C116.631 86.0955 117.61 86.9808 119.134 87.0595C119.78 87.0928 120.434 87.0661 121.083 87.0661V87.0808H123.202C123.782 87.0835 124.004 86.7635 123.992 86.2195C123.98 85.6675 123.632 85.6155 123.184 85.6221Z" fill="#2E2D2D"/>
</g>
<mask id="mask23_1_3" style="mask-type:luminance" maskUnits="userSpaceOnUse" x="0" y="0" width="1164" height="797">
<path d="M0 0.000128866H1163.42V796.679H0V0.000128866Z" fill="white"/>
</mask>
<g mask="url(#mask23_1_3)">
<path d="M187.785 78.8529C189.097 78.0223 190.313 77.5543 191.704 77.7876C193.087 78.0196 193.881 78.7743 194.016 80.1916C194.124 81.3396 194.076 82.5036 194.091 83.6596C194.1 84.4783 194.072 85.2969 194.105 86.1143C194.129 86.7116 194.016 87.0729 193.299 87.0889C192.525 87.1076 192.427 86.7023 192.432 86.0796C192.448 84.4143 192.449 82.7489 192.415 81.0849C192.383 79.5223 191.653 78.9609 190.119 79.2743C189.789 79.3423 189.469 79.4636 189.155 79.5849C188.175 79.9636 187.637 80.5423 187.749 81.7396C187.888 83.2223 187.764 84.7276 187.804 86.2236C187.821 86.9316 187.469 87.0849 186.867 87.0823C186.239 87.0783 186.147 86.7409 186.152 86.2049C186.175 83.7489 186.169 81.2943 186.165 78.8383C186.165 78.3423 186.1 77.8583 186.843 77.8449C187.468 77.8343 187.923 77.9436 187.785 78.8529Z" fill="#2E2D2D"/>
</g>
<mask id="mask24_1_3" style="mask-type:luminance" maskUnits="userSpaceOnUse" x="0" y="0" width="1164" height="797">
<path d="M0 0.000113607H1163.42V796.679H0V0.000113607Z" fill="white"/>
</mask>
<g mask="url(#mask24_1_3)">
<path d="M161 82.517C161 83.7583 161 84.9996 161 86.241C160.999 86.605 161.07 87.045 160.512 87.0343C160.079 87.0263 159.479 87.269 159.407 86.4996C159.362 86.013 159.134 86.1343 158.846 86.2916C158.098 86.6996 157.304 86.9876 156.463 87.1276C154.487 87.4543 153.192 86.4316 153.146 84.4343C153.102 82.489 153.162 80.5423 153.139 78.5956C153.132 77.957 153.467 77.8436 153.986 77.8383C154.514 77.833 154.751 78.037 154.744 78.593C154.724 80.3703 154.73 82.1476 154.736 83.925C154.742 85.3036 155.338 85.8343 156.692 85.6543C157.544 85.541 158.298 85.1596 159.04 84.7423C159.394 84.545 159.34 84.2463 159.342 83.941C159.351 82.1916 159.379 80.4423 159.366 78.693C159.362 78.085 159.566 77.8303 160.2 77.833C160.842 77.8356 161.028 78.105 161.014 78.709C160.983 79.977 161.004 81.2476 161.004 82.517H161Z" fill="#2E2D2D"/>
</g>
<mask id="mask25_1_3" style="mask-type:luminance" maskUnits="userSpaceOnUse" x="0" y="0" width="1164" height="797">
<path d="M0 8.30896e-05H1163.42V796.679H0V8.30896e-05Z" fill="white"/>
</mask>
<g mask="url(#mask25_1_3)">
<path d="M166.027 87.0756C165.378 87.0756 164.728 87.0623 164.08 87.0796C163.527 87.0956 163.236 86.8836 163.227 86.2969C163.218 85.6983 163.556 85.6183 164.046 85.6276C165.203 85.6476 166.36 85.6383 167.518 85.6343C168.138 85.6316 168.662 85.4636 168.711 84.7303C168.758 84.0476 168.452 83.5809 167.751 83.4556C166.808 83.2863 165.854 83.1743 164.919 82.9703C163.502 82.6609 163.032 81.8196 163.178 79.9849C163.28 78.6903 164.046 77.9143 165.364 77.8676C166.606 77.8236 167.848 77.8583 169.09 77.8489C169.664 77.8449 169.922 78.1423 169.906 78.6849C169.888 79.2209 169.571 79.3903 169.058 79.3743C168.043 79.3396 167.027 79.3516 166.011 79.3356C165.335 79.3249 164.851 79.5463 164.759 80.2929C164.668 81.0436 165.027 81.5023 165.731 81.6423C166.447 81.7849 167.182 81.8369 167.907 81.9356C169.7 82.1769 170.384 82.9956 170.284 84.7756C170.203 86.2103 169.431 86.9836 167.974 87.0489C167.326 87.0783 166.676 87.0543 166.027 87.0543V87.0756Z" fill="#2E2D2D"/>
</g>
<mask id="mask26_1_3" style="mask-type:luminance" maskUnits="userSpaceOnUse" x="0" y="0" width="1164" height="797">
<path d="M0 5.2572e-05H1163.42V796.679H0V5.2572e-05Z" fill="white"/>
</mask>
<g mask="url(#mask26_1_3)">
<path d="M146.98 83.1127C146.98 84.1007 146.961 85.09 146.987 86.0767C147.003 86.6527 146.947 87.0607 146.205 87.074C145.472 87.0873 145.393 86.7167 145.4 86.118C145.424 84.142 145.428 77.746 145.424 77.0993C145.411 74.442 145.399 74.166 147.017 74.166C147.384 74.1673 150.291 74.162 150.657 74.154C151.103 74.1433 151.34 74.3233 151.339 74.8033C151.337 75.2847 151.169 75.55 150.647 75.5273C150.167 75.506 148.541 75.5233 148.063 75.51C147.328 75.4913 146.981 75.8153 146.976 76.5753C146.967 77.882 146.945 77.882 148.287 77.882C148.541 77.882 149.94 77.8847 150.195 77.8847C150.701 77.8847 150.789 78.2273 150.791 78.6273C150.792 79.0313 150.692 79.3607 150.183 79.35C149.703 79.3407 148.076 79.3727 147.599 79.338C147.104 79.3033 146.969 79.5113 146.98 79.978C147.008 81.0233 146.989 82.0673 146.989 83.1127H146.98Z" fill="#2E2D2D"/>
</g>
<mask id="mask27_1_3" style="mask-type:luminance" maskUnits="userSpaceOnUse" x="0" y="0" width="1164" height="797">
<path d="M0 0.000113607H1163.42V796.679H0V0.000113607Z" fill="white"/>
</mask>
<g mask="url(#mask27_1_3)">
<path d="M128.823 87.0241C127.421 86.9135 126.467 85.9921 126.344 84.5895C126.22 83.1841 126.216 81.7681 126.351 80.3628C126.505 78.7655 127.503 77.8721 129.1 77.8508C130.228 77.8335 131.356 77.8615 132.485 77.8441C133.033 77.8361 133.344 78.0268 133.355 78.6121C133.367 79.2175 133.049 79.3708 132.497 79.3575C131.455 79.3308 130.411 79.3548 129.367 79.3601C128.516 79.3628 128.029 79.8041 127.993 80.6388C127.947 81.7361 127.928 82.8388 127.977 83.9361C128.032 85.1415 128.541 85.6001 129.736 85.6255C130.695 85.6455 131.655 85.6495 132.613 85.6215C133.104 85.6081 133.364 85.7628 133.367 86.2775C133.369 86.7801 133.192 87.0855 132.629 87.0708C132.009 87.0535 129.467 87.0761 128.823 87.0241Z" fill="#2E2D2D"/>
</g>
<mask id="mask28_1_3" style="mask-type:luminance" maskUnits="userSpaceOnUse" x="0" y="0" width="1164" height="797">
<path d="M0 8.30896e-05H1163.42V796.679H0V8.30896e-05Z" fill="white"/>
</mask>
<g mask="url(#mask28_1_3)">
<path d="M172.215 82.4141C172.214 81.1448 172.235 79.8741 172.204 78.6048C172.19 77.9888 172.487 77.8181 173.03 77.8221C173.568 77.8261 173.868 78.0034 173.863 78.6128C173.846 81.1528 173.844 83.6914 173.863 86.2314C173.867 86.8461 173.642 87.1008 173.022 87.1021C172.394 87.1021 172.19 86.8341 172.206 86.2234C172.239 84.9554 172.215 83.6848 172.215 82.4141Z" fill="#2E2D2D"/>
</g>
<mask id="mask29_1_3" style="mask-type:luminance" maskUnits="userSpaceOnUse" x="0" y="0" width="1164" height="797">
<path d="M0 9.83484e-05H1163.42V796.679H0V9.83484e-05Z" fill="white"/>
</mask>
<g mask="url(#mask29_1_3)">
<path d="M174.045 75.4369C174.004 76.0409 173.676 76.3636 173.017 76.3476C172.348 76.3316 172.059 75.9756 172.065 75.3342C172.072 74.6582 172.457 74.3902 173.088 74.3876C173.765 74.3849 174.036 74.7676 174.045 75.4369Z" fill="#2E2D2D"/>
</g>
<mask id="mask30_1_3" style="mask-type:luminance" maskUnits="userSpaceOnUse" x="0" y="0" width="1164" height="797">
<path d="M0 5.2572e-05H1163.42V796.679H0V5.2572e-05Z" fill="white"/>
</mask>
<g mask="url(#mask30_1_3)">
<path d="M102.104 73.1928C102.104 74.4155 101.11 75.4102 99.8858 75.4102C98.6591 75.4102 97.6644 74.4155 97.6644 73.1928C97.6644 72.7542 97.7898 72.3515 98.0111 72.0088C98.1764 71.7395 98.4018 71.5102 98.6631 71.3408C99.0138 71.1075 99.4324 70.9702 99.8858 70.9702C101.11 70.9702 102.104 71.9648 102.104 73.1928Z" fill="#2E2D2D"/>
</g>
<mask id="mask31_1_3" style="mask-type:luminance" maskUnits="userSpaceOnUse" x="0" y="0" width="1164" height="797">
<path d="M0 9.83484e-05H1163.42V796.679H0V9.83484e-05Z" fill="white"/>
</mask>
<g mask="url(#mask31_1_3)">
<path d="M48.6363 74.364C48.6363 75.9293 47.3683 77.1973 45.8069 77.1973C44.2416 77.1973 42.9763 75.9293 42.9763 74.364C42.9763 72.8027 44.2416 71.5333 45.8069 71.5333C46.7003 71.5333 47.5003 71.948 48.0163 72.6013C48.2216 72.8547 48.3829 73.144 48.4869 73.4627C48.5843 73.744 48.6363 74.0493 48.6363 74.364Z" fill="#2E2D2D"/>
</g>
<mask id="mask32_1_3" style="mask-type:luminance" maskUnits="userSpaceOnUse" x="0" y="0" width="1164" height="797">
<path d="M0 9.83484e-05H1163.42V796.679H0V9.83484e-05Z" fill="white"/>
</mask>
<g mask="url(#mask32_1_3)">
<path d="M74.7424 97.6967C74.7424 99.5767 73.2171 101.098 71.3411 101.098C69.4624 101.098 67.9357 99.5767 67.9357 97.6967C67.9357 96.2154 68.8864 94.9514 70.2064 94.4847C70.5597 94.3607 70.9424 94.2914 71.3411 94.2914C71.4984 94.2914 71.6557 94.3034 71.8077 94.3234C73.4624 94.5527 74.7424 95.974 74.7424 97.6967Z" fill="#2E2D2D"/>
</g>
<mask id="mask33_1_3" style="mask-type:luminance" maskUnits="userSpaceOnUse" x="0" y="0" width="1164" height="797">
<path d="M0 0.000105978H1163.42V796.679H0V0.000105978Z" fill="white"/>
</mask>
<g mask="url(#mask33_1_3)">
<path d="M94.9964 48.4923C94.9964 49.0029 94.5818 49.4176 94.0711 49.4176C93.5604 49.4176 93.1458 49.0029 93.1458 48.4923C93.1458 47.9816 93.5604 47.5669 94.0711 47.5669C94.5818 47.5669 94.9964 47.9816 94.9964 48.4923Z" fill="#2E2D2D"/>
</g>
<mask id="mask34_1_3" style="mask-type:luminance" maskUnits="userSpaceOnUse" x="0" y="0" width="1164" height="797">
<path d="M0 5.2572e-05H1163.42V796.679H0V5.2572e-05Z" fill="white"/>
</mask>
<g mask="url(#mask34_1_3)">
<path d="M92.4605 86.1127C92.4605 89.01 90.1099 91.3647 87.2085 91.3647C84.3059 91.3647 81.9552 89.01 81.9552 86.1127C81.9552 85.4447 82.0792 84.8087 82.3059 84.2247C82.8725 82.7514 84.0845 81.5967 85.5979 81.1127C85.8912 81.0167 86.1979 80.9487 86.5152 80.9087C86.7405 80.8767 86.9739 80.8607 87.2085 80.8607C90.1099 80.8607 92.4605 83.2114 92.4605 86.1127Z" fill="#2E2D2D"/>
</g>
<mask id="mask35_1_3" style="mask-type:luminance" maskUnits="userSpaceOnUse" x="0" y="0" width="1164" height="797">
<path d="M0 2.20544e-05H1163.42V796.679H0V2.20544e-05Z" fill="white"/>
</mask>
<g mask="url(#mask35_1_3)">
<path d="M86.2255 46.9896C86.2255 48.0283 85.5135 48.9016 84.5508 49.1429C84.3788 49.1869 84.1975 49.2123 84.0081 49.2123C83.7188 49.2123 83.4441 49.1549 83.1908 49.0549C82.3655 48.7283 81.7855 47.9283 81.7855 46.9896C81.7855 45.7629 82.7801 44.7723 84.0081 44.7723C85.2308 44.7723 86.2255 45.7629 86.2255 46.9896Z" fill="#2E2D2D"/>
</g>
<mask id="mask36_1_3" style="mask-type:luminance" maskUnits="userSpaceOnUse" x="0" y="0" width="1164" height="797">
<path d="M0 4.49426e-05H1163.42V796.679H0V4.49426e-05Z" fill="white"/>
</mask>
<g mask="url(#mask36_1_3)">
<path d="M99.8862 58.3965C99.8862 61.6925 97.2142 64.3619 93.9209 64.3619C91.0556 64.3619 88.6689 62.3485 88.0889 59.6565C88.0009 59.2499 87.9569 58.8272 87.9569 58.3965C87.9569 55.1045 90.6249 52.4312 93.9209 52.4312C97.2142 52.4312 99.8862 55.1045 99.8862 58.3965Z" fill="#2E2D2D"/>
</g>
<mask id="mask37_1_3" style="mask-type:luminance" maskUnits="userSpaceOnUse" x="0" y="0" width="1164" height="797">
<path d="M0 0.000128866H1163.42V796.679H0V0.000128866Z" fill="white"/>
</mask>
<g mask="url(#mask37_1_3)">
<path d="M98.663 71.3367V71.3407C98.4017 71.51 98.1764 71.7393 98.011 72.0087C96.6217 70.7607 94.3884 68.8127 92.7257 67.642C89.707 65.5127 86.1777 66.978 86.1777 66.978L83.5937 68.214L86.531 80.8607L86.515 80.9087C86.1977 80.9487 85.891 81.0167 85.5977 81.114L82.559 68.958L81.7857 69.3727L81.4404 64.6553L83.191 49.0553C83.4444 49.1553 83.719 49.2113 84.0084 49.2113C84.1964 49.2113 84.379 49.1873 84.551 49.1433L82.8044 63.826L88.0897 59.6567C88.6684 62.3487 91.055 64.362 93.9217 64.362H90.8857L98.663 71.3367Z" fill="#2E2D2D"/>
</g>
<mask id="mask38_1_3" style="mask-type:luminance" maskUnits="userSpaceOnUse" x="0" y="0" width="1164" height="797">
<path d="M0 0.000113607H1163.42V796.679H0V0.000113607Z" fill="white"/>
</mask>
<g mask="url(#mask38_1_3)">
<path d="M81.7861 69.3724C80.2568 70.3351 74.4408 74.8591 74.4408 74.8591H74.2154C73.9781 73.0751 73.1368 71.4857 71.9008 70.3031L71.8968 70.2977L71.8088 69.6951C71.8088 69.6951 73.1968 68.1524 75.3701 67.4604C77.5434 66.7644 81.4394 64.6551 81.4394 64.6551L81.7861 69.3724Z" fill="#2E2D2D"/>
</g>
<mask id="mask39_1_3" style="mask-type:luminance" maskUnits="userSpaceOnUse" x="0" y="0" width="1164" height="797">
<path d="M0 6.78308e-05H1163.42V796.679H0V6.78308e-05Z" fill="white"/>
</mask>
<g mask="url(#mask39_1_3)">
<path d="M82.3056 84.2247C82.0803 84.8087 81.9549 85.4447 81.9549 86.1127C81.9549 86.1127 78.5376 85.2193 77.1736 84.1927C75.8056 83.17 73.1523 83.4327 72.5443 83.9633C71.9376 84.4953 71.8083 85.4847 71.8083 86.318V94.3233C71.6549 94.3033 71.4989 94.2913 71.3416 94.2913C70.9429 94.2913 70.5603 94.3607 70.2056 94.4847C70.1696 94.2673 68.9109 86.6473 68.0976 83.5167C70.5843 83.002 72.6376 81.2953 73.6323 79.0247C74.6456 79.906 77.7736 82.57 79.6003 83.3593C80.7483 83.85 81.6776 84.1007 82.3056 84.2247Z" fill="#2E2D2D"/>
</g>
<mask id="mask40_1_3" style="mask-type:luminance" maskUnits="userSpaceOnUse" x="0" y="0" width="1164" height="797">
<path d="M0 0.000128866H1163.42V796.679H0V0.000128866Z" fill="white"/>
</mask>
<g mask="url(#mask40_1_3)">
<path d="M57.8577 87.1752C57.8577 88.2738 56.9684 89.1592 55.8737 89.1592C54.7777 89.1592 53.8924 88.2738 53.8924 87.1752C53.8924 86.0805 54.7777 85.1952 55.8737 85.1952C56.0751 85.1952 56.2684 85.2232 56.4484 85.2792C56.7351 85.3685 56.9884 85.5125 57.2017 85.7058C57.6044 86.0685 57.8577 86.5925 57.8577 87.1752Z" fill="#2E2D2D"/>
</g>
<mask id="mask41_1_3" style="mask-type:luminance" maskUnits="userSpaceOnUse" x="0" y="0" width="1164" height="797">
<path d="M0 3.73132e-05H1163.42V796.679H0V3.73132e-05Z" fill="white"/>
</mask>
<g mask="url(#mask41_1_3)">
<path d="M60.5542 80.8965L57.2009 85.7059C56.9876 85.5125 56.7342 85.3685 56.4489 85.2792L59.7769 79.7885C60.0022 80.1792 60.2609 80.5499 60.5542 80.8965Z" fill="#2E2D2D"/>
</g>
<mask id="mask42_1_3" style="mask-type:luminance" maskUnits="userSpaceOnUse" x="0" y="0" width="1164" height="797">
<path d="M0 8.30896e-05H1163.42V796.679H0V8.30896e-05Z" fill="white"/>
</mask>
<g mask="url(#mask42_1_3)">
<path d="M52.4684 53.4499C52.4684 53.9779 52.3391 54.4765 52.1097 54.9152C51.6711 55.7605 50.8617 56.3805 49.9004 56.5645C49.7031 56.6059 49.5017 56.6259 49.2924 56.6259C47.5417 56.6259 46.1164 55.2045 46.1164 53.4499C46.1164 51.6952 47.5417 50.2739 49.2924 50.2739C51.0471 50.2739 52.4684 51.6952 52.4684 53.4499Z" fill="#2E2D2D"/>
</g>
<mask id="mask43_1_3" style="mask-type:luminance" maskUnits="userSpaceOnUse" x="0" y="0" width="1164" height="797">
<path d="M0 6.78308e-05H1163.42V796.679H0V6.78308e-05Z" fill="white"/>
</mask>
<g mask="url(#mask43_1_3)">
<path d="M67.2236 68.1615C66.9902 68.1362 66.7529 68.1255 66.5116 68.1255C63.3756 68.1255 60.6742 69.9802 59.4476 72.6535L56.9116 70.1175C55.9049 69.1108 54.1862 70.2708 54.1862 70.2708L48.4876 73.4628C48.3822 73.1442 48.2222 72.8548 48.0169 72.6015C49.9929 71.3122 53.9049 68.7762 54.9236 68.2455C56.0222 67.6695 55.9702 65.7495 55.9702 65.7495C55.9702 64.1802 54.5729 62.2402 54.5729 62.2402L49.8996 56.5655C50.8622 56.3802 51.6702 55.7602 52.1102 54.9148C54.1702 57.0442 58.2156 61.2255 58.9889 61.9628C60.0342 62.9575 61.2342 62.8682 61.2342 62.8682C61.2342 62.8682 61.5769 62.8082 62.1076 62.8362C63.0009 62.8762 64.4342 63.1615 65.6742 64.3855C66.1942 64.9015 66.5476 65.4202 66.7809 65.9148H66.7849C67.2276 66.8415 67.2636 67.6695 67.2236 68.1615Z" fill="#2E2D2D"/>
</g>
<mask id="mask44_1_3" style="mask-type:luminance" maskUnits="userSpaceOnUse" x="0" y="0" width="1164" height="797">
<path d="M0 5.2572e-05H1163.42V796.679H0V5.2572e-05Z" fill="white"/>
</mask>
<g mask="url(#mask44_1_3)">
<path d="M75.8896 46.5873C75.8896 50.878 72.4122 54.3553 68.1216 54.3553C67.9682 54.3553 67.8149 54.3513 67.6669 54.3393C66.7802 54.2913 65.9362 54.09 65.1549 53.7673C62.3336 52.6007 60.3536 49.8273 60.3536 46.5873C60.3536 42.2967 63.8309 38.8193 68.1216 38.8193C72.4122 38.8193 75.8896 42.2967 75.8896 46.5873Z" fill="#2E2D2D"/>
</g>
<mask id="mask45_1_3" style="mask-type:luminance" maskUnits="userSpaceOnUse" x="0" y="0" width="1164" height="797">
<path d="M0 6.78308e-05H1163.42V796.679H0V6.78308e-05Z" fill="white"/>
</mask>
<g mask="url(#mask45_1_3)">
<path d="M66.7848 65.9155H66.7808C66.5475 65.4195 66.1941 64.9008 65.6741 64.3861C64.4341 63.1621 63.0021 62.8768 62.1075 62.8355C62.4421 62.3688 63.1221 61.2581 63.9955 58.9715C64.6755 57.1928 65.0021 55.2128 65.1541 53.7675C65.9355 54.0901 66.7808 54.2915 67.6661 54.3395C66.6315 59.7608 66.7848 65.9155 66.7848 65.9155Z" fill="#2E2D2D"/>
</g>
<mask id="mask46_1_3" style="mask-type:luminance" maskUnits="userSpaceOnUse" x="0" y="0" width="1164" height="797">
<path d="M0 8.30896e-05H1163.42V796.679H0V8.30896e-05Z" fill="white"/>
</mask>
<g mask="url(#mask46_1_3)">
<path d="M74.2874 75.9011C74.2874 77.0117 74.054 78.0704 73.6314 79.0251C72.638 81.2944 70.5847 83.0011 68.0967 83.5157C67.586 83.6211 67.0554 83.6784 66.5114 83.6784C64.1207 83.6784 61.9794 82.5957 60.554 80.8971C60.2607 80.5504 60.0034 80.1797 59.778 79.7891C59.114 78.6464 58.7354 77.3171 58.7354 75.9011C58.7354 74.7424 58.9887 73.6397 59.4474 72.6531C60.6754 69.9811 63.3754 68.1251 66.5114 68.1251C66.7527 68.1251 66.99 68.1371 67.2234 68.1611C69.0314 68.3224 70.6647 69.1024 71.8967 70.2984L71.9007 70.3024C73.1367 71.4851 73.978 73.0757 74.2154 74.8584C74.2634 75.1971 74.2874 75.5464 74.2874 75.9011Z" fill="#2E2D2D" stroke="url(#paint12_linear_1_3)" stroke-width="0.666667" stroke-miterlimit="10"/>
</g>
<defs>
<linearGradient id="paint0_linear_1_3" x1="837.168" y1="478.915" x2="875.477" y2="478.915" gradientUnits="userSpaceOnUse">
<stop stop-color="#5172AA"/>
<stop offset="1" stop-color="#4C80B7"/>
</linearGradient>
<linearGradient id="paint1_linear_1_3" x1="884.306" y1="478.59" x2="920.029" y2="478.59" gradientUnits="userSpaceOnUse">
<stop stop-color="#5172AA"/>
<stop offset="1" stop-color="#4C80B7"/>
</linearGradient>
<linearGradient id="paint2_linear_1_3" x1="736.042" y1="479.045" x2="771.444" y2="479.045" gradientUnits="userSpaceOnUse">
<stop stop-color="#5172AA"/>
<stop offset="1" stop-color="#4C80B7"/>
</linearGradient>
<linearGradient id="paint3_linear_1_3" x1="781.045" y1="478.831" x2="813.108" y2="478.831" gradientUnits="userSpaceOnUse">
<stop stop-color="#5172AA"/>
<stop offset="1" stop-color="#4C80B7"/>
</linearGradient>
<linearGradient id="paint4_linear_1_3" x1="701.339" y1="470.532" x2="728.002" y2="470.532" gradientUnits="userSpaceOnUse">
<stop stop-color="#5172AA"/>
<stop offset="1" stop-color="#4C80B7"/>
</linearGradient>
<linearGradient id="paint5_linear_1_3" x1="821.684" y1="478.828" x2="829.135" y2="478.828" gradientUnits="userSpaceOnUse">
<stop stop-color="#5172AA"/>
<stop offset="1" stop-color="#4C80B7"/>
</linearGradient>
<linearGradient id="paint6_linear_1_3" x1="821.056" y1="446.978" x2="829.95" y2="446.978" gradientUnits="userSpaceOnUse">
<stop stop-color="#5172AA"/>
<stop offset="1" stop-color="#4C80B7"/>
</linearGradient>
<linearGradient id="paint7_linear_1_3" x1="414.172" y1="400.806" x2="491.499" y2="400.806" gradientUnits="userSpaceOnUse">
<stop stop-color="#5172AA"/>
<stop offset="1" stop-color="#4C80B7"/>
</linearGradient>
<linearGradient id="paint8_linear_1_3" x1="354.265" y1="498.103" x2="418.057" y2="498.103" gradientUnits="userSpaceOnUse">
<stop stop-color="#5172AA"/>
<stop offset="1" stop-color="#4C80B7"/>
</linearGradient>
<linearGradient id="paint9_linear_1_3" x1="319.496" y1="317.76" x2="389.252" y2="317.76" gradientUnits="userSpaceOnUse">
<stop stop-color="#5172AA"/>
<stop offset="1" stop-color="#4C80B7"/>
</linearGradient>
<linearGradient id="paint10_linear_1_3" x1="327.375" y1="377.268" x2="352.332" y2="377.268" gradientUnits="userSpaceOnUse">
<stop stop-color="#5172AA"/>
<stop offset="1" stop-color="#4C80B7"/>
</linearGradient>
<linearGradient id="paint11_linear_1_3" x1="311.899" y1="449.373" x2="382.393" y2="449.373" gradientUnits="userSpaceOnUse">
<stop stop-color="#5172AA"/>
<stop offset="1" stop-color="#4C80B7"/>
</linearGradient>
<linearGradient id="paint12_linear_1_3" x1="58.4016" y1="75.9013" x2="74.6208" y2="75.9013" gradientUnits="userSpaceOnUse">
<stop stop-color="#5172AA"/>
<stop offset="1" stop-color="#4C80B7"/>
</linearGradient>
</defs>
</svg>
